HIERARCHY
ROOT Hips
{
    OFFSET   0.000000   0.000000   0.000000
    CHANNELS 6 Xposition Yposition Zposition Zrotation Xrotation Yrotation
    JOINT Chest
    {
        OFFSET   0.000000   8.007230   0.000000
        CHANNELS 3 Zrotation Xrotation Yrotation
        JOINT Chest2
        {
            OFFSET   0.000000  22.077100   0.000000
            CHANNELS 3 Zrotation Xrotation Yrotation
            JOINT Neck
            {
                OFFSET   0.000000  23.255100   0.000000
                CHANNELS 3 Zrotation Xrotation Yrotation
                JOINT Head
                {
                    OFFSET   0.000000  14.370100   1.956600
                    CHANNELS 3 Zrotation Xrotation Yrotation
                    End Site
                    {
                        OFFSET   0.000000  19.566000   0.000000
                    }
                }
            }
            JOINT LeftCollar
            {
                OFFSET   3.911900  19.017000  -0.467063
                CHANNELS 3 Zrotation Xrotation Yrotation
                JOINT LeftShoulder
                {
                    OFFSET  10.383700   0.000000   0.000000
                    CHANNELS 3 Zrotation Xrotation Yrotation
                    JOINT LeftElbow
                    {
                        OFFSET  26.662100   0.001193   0.000980
                        CHANNELS 3 Zrotation Xrotation Yrotation
                        JOINT LeftWrist
                        {
                            OFFSET  28.869000  -0.000059  -0.000082
                            CHANNELS 3 Zrotation Xrotation Yrotation
                            JOINT LeftFinger0
                            {
                                OFFSET   2.044650  -2.323450   3.252850
                                CHANNELS 3 Zrotation Xrotation Yrotation
                                JOINT LeftFinger01
                                {
                                    OFFSET   3.088130   0.000000   0.000000
                                    CHANNELS 3 Zrotation Xrotation Yrotation
                                    JOINT LeftFinger02
                                    {
                                        OFFSET   2.639460   0.000000   0.000000
                                        CHANNELS 3 Zrotation Xrotation Yrotation
                                        End Site
                                        {
                                            OFFSET   2.582190   0.000000   0.000000
                                        }
                                    }
                                }
                            }
                            JOINT LeftFinger1
                            {
                                OFFSET   8.364480   0.000000   3.252850
                                CHANNELS 3 Zrotation Xrotation Yrotation
                                JOINT LeftFinger11
                                {
                                    OFFSET   4.646930   0.000000   0.000000
                                    CHANNELS 3 Zrotation Xrotation Yrotation
                                    JOINT LeftFinger12
                                    {
                                        OFFSET   2.323470   0.000000   0.000000
                                        CHANNELS 3 Zrotation Xrotation Yrotation
                                        End Site
                                        {
                                            OFFSET   2.273050   0.000000   0.000000
                                        }
                                    }
                                }
                            }
                            JOINT LeftFinger2
                            {
                                OFFSET   8.364490   0.000016   1.078090
                                CHANNELS 3 Zrotation Xrotation Yrotation
                                JOINT LeftFinger21
                                {
                                    OFFSET   5.111610   0.000000   0.000000
                                    CHANNELS 3 Zrotation Xrotation Yrotation
                                    JOINT LeftFinger22
                                    {
                                        OFFSET   2.788150   0.000016   0.000000
                                        CHANNELS 3 Zrotation Xrotation Yrotation
                                        End Site
                                        {
                                            OFFSET   2.727660   0.000000   0.000000
                                        }
                                    }
                                }
                            }
                            JOINT LeftFinger3
                            {
                                OFFSET   7.899780   0.000015  -1.078090
                                CHANNELS 3 Zrotation Xrotation Yrotation
                                JOINT LeftFinger31
                                {
                                    OFFSET   4.646930   0.000000   0.000000
                                    CHANNELS 3 Zrotation Xrotation Yrotation
                                    JOINT LeftFinger32
                                    {
                                        OFFSET   2.323470   0.000000   0.000000
                                        CHANNELS 3 Zrotation Xrotation Yrotation
                                        End Site
                                        {
                                            OFFSET   2.273050   0.000000   0.000000
                                        }
                                    }
                                }
                            }
                            JOINT LeftFinger4
                            {
                                OFFSET   7.435090   0.000000  -3.252850
                                CHANNELS 3 Zrotation Xrotation Yrotation
                                JOINT LeftFinger41
                                {
                                    OFFSET   3.717550   0.000000   0.000000
                                    CHANNELS 3 Zrotation Xrotation Yrotation
                                    JOINT LeftFinger42
                                    {
                                        OFFSET   1.858770   0.000000   0.000000
                                        CHANNELS 3 Zrotation Xrotation Yrotation
                                        End Site
                                        {
                                            OFFSET   1.818440   0.000000   0.000000
                                        }
                                    }
                                }
                            }
                        }
                    }
                }
            }
            JOINT RightCollar
            {
                OFFSET  -3.911910  19.017000  -0.467062
                CHANNELS 3 Zrotation Xrotation Yrotation
                JOINT RightShoulder
                {
                    OFFSET -10.383700   0.000014   0.000000
                    CHANNELS 3 Zrotation Xrotation Yrotation
                    JOINT RightElbow
                    {
                        OFFSET -26.662100   0.001225   0.001091
                        CHANNELS 3 Zrotation Xrotation Yrotation
                        JOINT RightWrist
                        {
                            OFFSET -28.869000  -0.000020  -0.000085
                            CHANNELS 3 Zrotation Xrotation Yrotation
                            JOINT RightFinger0
                            {
                                OFFSET  -2.044650  -2.323490   3.252850
                                CHANNELS 3 Zrotation Xrotation Yrotation
                                JOINT RightFinger01
                                {
                                    OFFSET  -3.088130   0.000000   0.000000
                                    CHANNELS 3 Zrotation Xrotation Yrotation
                                    JOINT RightFinger02
                                    {
                                        OFFSET  -2.639460   0.000000   0.000000
                                        CHANNELS 3 Zrotation Xrotation Yrotation
                                        End Site
                                        {
                                            OFFSET  -2.582190   0.000000   0.000000
                                        }
                                    }
                                }
                            }
                            JOINT RightFinger1
                            {
                                OFFSET  -8.364480   0.000000   3.252850
                                CHANNELS 3 Zrotation Xrotation Yrotation
                                JOINT RightFinger11
                                {
                                    OFFSET  -4.646930   0.000000   0.000000
                                    CHANNELS 3 Zrotation Xrotation Yrotation
                                    JOINT RightFinger12
                                    {
                                        OFFSET  -2.323470   0.000000   0.000000
                                        CHANNELS 3 Zrotation Xrotation Yrotation
                                        End Site
                                        {
                                            OFFSET  -2.273050   0.000000   0.000000
                                        }
                                    }
                                }
                            }
                            JOINT RightFinger2
                            {
                                OFFSET  -8.364480   0.000000   1.078090
                                CHANNELS 3 Zrotation Xrotation Yrotation
                                JOINT RightFinger21
                                {
                                    OFFSET  -5.111620   0.000000   0.000000
                                    CHANNELS 3 Zrotation Xrotation Yrotation
                                    JOINT RightFinger22
                                    {
                                        OFFSET  -2.788160   0.000000   0.000000
                                        CHANNELS 3 Zrotation Xrotation Yrotation
                                        End Site
                                        {
                                            OFFSET  -2.727660   0.000000   0.000000
                                        }
                                    }
                                }
                            }
                            JOINT RightFinger3
                            {
                                OFFSET  -7.899780   0.000000  -1.078090
                                CHANNELS 3 Zrotation Xrotation Yrotation
                                JOINT RightFinger31
                                {
                                    OFFSET  -4.646930   0.000000   0.000000
                                    CHANNELS 3 Zrotation Xrotation Yrotation
                                    JOINT RightFinger32
                                    {
                                        OFFSET  -2.323470   0.000000   0.000000
                                        CHANNELS 3 Zrotation Xrotation Yrotation
                                        End Site
                                        {
                                            OFFSET  -2.273050   0.000000   0.000000
                                        }
                                    }
                                }
                            }
                            JOINT RightFinger4
                            {
                                OFFSET  -7.435090   0.000000  -3.252850
                                CHANNELS 3 Zrotation Xrotation Yrotation
                                JOINT RightFinger41
                                {
                                    OFFSET  -3.717550   0.000000   0.000000
                                    CHANNELS 3 Zrotation Xrotation Yrotation
                                    JOINT RightFinger42
                                    {
                                        OFFSET  -1.858760   0.000000   0.000000
                                        CHANNELS 3 Zrotation Xrotation Yrotation
                                        End Site
                                        {
                                            OFFSET  -1.818440   0.000000   0.000000
                                        }
                                    }
                                }
                            }
                        }
                    }
                }
            }
        }
    }
    JOINT LeftHip
    {
        OFFSET   9.783030   0.000000   0.000000
        CHANNELS 3 Zrotation Xrotation Yrotation
        JOINT LeftKnee
        {
            OFFSET   0.000063 -41.789100   0.000608
            CHANNELS 3 Zrotation Xrotation Yrotation
            JOINT LeftAnkle
            {
                OFFSET   0.000048 -41.133200  -0.000184
                CHANNELS 3 Zrotation Xrotation Yrotation
                JOINT LeftToe
                {
                    OFFSET   0.000000  -6.358960  14.674500
                    CHANNELS 3 Zrotation Xrotation Yrotation
                    End Site
                    {
                        OFFSET   0.000000   0.000000   3.913200
                    }
                }
            }
        }
    }
    JOINT RightHip
    {
        OFFSET  -9.783030   0.000000   0.000000
        CHANNELS 3 Zrotation Xrotation Yrotation
        JOINT RightKnee
        {
            OFFSET   0.000071 -41.789100   0.001239
            CHANNELS 3 Zrotation Xrotation Yrotation
            JOINT RightAnkle
            {
                OFFSET   0.000037 -41.133200  -0.000166
                CHANNELS 3 Zrotation Xrotation Yrotation
                JOINT RightToe
                {
                    OFFSET   0.000000  -6.358960  14.674500
                    CHANNELS 3 Zrotation Xrotation Yrotation
                    End Site
                    {
                        OFFSET   0.000000   0.000000   3.913200
                    }
                }
            }
        }
    }
}
MOTION
Frames: 5
Frame Time:   0.016667
  0.724781  89.481400  -0.309059  -3.423890  -5.105960  -0.161982   0.822826   3.670300   0.193707   1.638260   7.343020   0.335487   1.540930  -0.669893   0.018084   2.532600  -1.355780   5.330630  -7.140860   2.515790   0.744497 -73.168600  15.757800 -11.612000  -1.541420  -7.771120  -9.519780   7.958170  -6.611130   9.949450  43.289100  31.480600 -64.460700 -22.964100   0.003021   0.001358  -6.482460  -0.004310  -0.001203 -29.896900   4.881990  -8.419690 -24.755300   0.000344  -0.000000 -17.328700   0.004603   0.001791 -27.359200   1.052350  -2.030480 -28.642800   0.007373   0.004461 -19.076100   0.004964   0.004009 -26.492500  -2.088690   4.174060 -26.568600   0.000976   0.001630 -17.694700   0.006581   0.001996 -29.734000  -2.317610   4.049610 -44.723800  -0.000602   0.013720 -29.786100   0.000285   0.000327  -0.672785  -4.394840  11.225200  42.491200 -19.044000  54.400900 -22.844100 -28.195500  65.776700  13.809600 -39.968900  29.853900 -54.411500  34.401500  63.510500   4.411950  -0.003795   0.000506  -2.794030  -0.002853   0.008039  18.839300   4.631080  13.319300  15.857300   0.003251   0.002983  11.100100   0.003128   0.003308  17.908400   4.294610  13.054700  18.401000   0.004045   0.005220  12.255000   0.003994   0.004035  20.150900   3.222440   8.715220  20.397200   0.002294   0.002953  13.584600   0.002085   0.009848  22.825700   2.121380   5.026000  34.376100   0.001860   0.001144  22.894500   0.001717  -0.002835   4.195400   8.939460   5.190810   0.916856   0.128417  12.693600  -2.274620  -2.904820   4.263100  -0.000000   0.000000  -0.000000   1.379630   3.818440  -4.446450   0.936993   5.182170  -8.366990  -1.699180  -3.059910  -3.117190  -0.000000   0.000000   0.000000
  0.741369  89.486500  -0.275189  -3.414980  -5.071300  -0.174215   0.844776   3.617460   0.144901   1.685440   7.236670   0.236930   1.489130  -0.673014   0.017517   2.447620  -1.362140   5.456830  -7.127990   2.580650   0.742335 -73.181400  15.632000 -11.588700  -1.541680  -7.717030  -9.550230   7.972000  -6.609830   9.963360  43.304900  31.508300 -64.490000 -22.964100   0.003297   0.001470  -6.482130  -0.004362  -0.000919 -29.897500   4.885630  -8.424450 -24.756100   0.000270   0.000025 -17.329200   0.004405   0.001423 -27.358800   1.050410  -2.027630 -28.638100   0.007005   0.004445 -19.073000   0.004744   0.003703 -26.494900  -2.090710   4.174990 -26.571100   0.000780   0.001529 -17.694300   0.006327   0.001711 -29.742300  -2.318810   4.050340 -44.736400  -0.000836   0.012074 -29.794400  -0.000004   0.000341  -0.576785  -4.218280  11.199700  43.539300 -19.796100  54.125900 -23.037400 -28.703400  66.068400  12.247700 -39.414500  29.275900 -54.719400  34.618800  63.817200   4.972860  -0.005726   0.000629  -2.513580  -0.002955   0.008921  19.051400   4.730960  13.442400  16.044600   0.003265   0.003741  11.231300   0.003141   0.003480  18.164400   4.407860  13.201300  18.675500   0.004146   0.005848  12.437900   0.004012   0.005390  20.341700   3.296970   8.832520  20.597000   0.002309   0.003172  13.717600   0.002096   0.010488  22.983300   2.110230   4.961300  34.609400   0.001925   0.001437  23.049900   0.001769  -0.002727   4.173300   8.959330   5.213080   0.911735   0.079138  12.685100  -2.275460  -2.896470   4.269250  -0.000000   0.000000   0.000000   1.367420   3.821970  -4.424230   0.938900   5.174660  -8.386450  -1.690350  -3.089760  -3.110290   0.000000   0.000000   0.000000
  0.756720  89.493100  -0.243573  -3.406940  -5.037750  -0.195182   0.871794   3.574890   0.096016   1.742690   7.150850   0.137801   1.429990  -0.685172   0.016868   2.350290  -1.386980   5.601440  -7.122810   2.627100   0.735137 -73.190800  15.506000 -11.564500  -1.550150  -7.660080  -9.591540   7.979800  -6.608520   9.977790  43.320400  31.533400 -64.515300 -22.964200   0.003572   0.001582  -6.482080  -0.004412  -0.000837 -29.897200   4.887140  -8.428330 -24.756200   0.000201   0.000128 -17.329300   0.004214   0.001111 -27.358100   1.046470  -2.021270 -28.627300   0.006637   0.004442 -19.065800   0.004531   0.003408 -26.495000  -2.092850   4.179150 -26.571500   0.000616   0.001425 -17.693200   0.006074   0.001424 -29.747200  -2.321290   4.054010 -44.744000  -0.001035   0.008546 -29.799500  -0.000233   0.000419  -0.476417  -4.059860  11.183700  44.602200 -20.473800  53.771300 -23.287300 -29.196700  66.369000  10.490900 -38.702000  28.655400 -54.993400  34.909600  64.249900   5.555020  -0.007692   0.000770  -2.222510  -0.003058   0.009863  19.300300   4.826230  13.519000  16.260100   0.003280   0.004643  11.382100   0.003153   0.003655  18.444400   4.511460  13.278000  18.969600   0.004249   0.006496  12.633800   0.004031   0.007365  20.548000   3.357050   8.883990  20.808800   0.002323   0.003390  13.858600   0.002107   0.011104  23.150300   2.097870   4.892080  34.857100   0.001994   0.001743  23.214800   0.001823  -0.002623   4.154150   8.979170   5.237830   0.906598   0.029855  12.678200  -2.276050  -2.888090   4.280670   0.000000   0.000000   0.000000   1.355480   3.825510  -4.401330   0.939036   5.164460  -8.397900  -1.681060  -3.116400  -3.101280  -0.000000   0.000000   0.000000
  0.770748  89.501100  -0.216060  -3.399910  -5.003160  -0.227494   0.905557   3.545600   0.053342   1.813020   7.091600   0.050554   1.360860  -0.710814   0.016272   2.236650  -1.439070   5.749580  -7.127170   2.649270   0.704447 -73.192200  15.386100 -11.541400  -1.566710  -7.584590  -9.643330   7.984580  -6.608470   9.997260  43.319500  31.543200 -64.527200 -22.973400   0.003848   0.001716  -6.486660  -0.004467  -0.000718 -29.891500   4.887940  -8.430810 -24.751800   0.000135   0.000349 -17.326200   0.004026   0.000872 -27.356600   1.040420  -2.010060 -28.613500   0.006270   0.004451 -19.056600   0.004325   0.003120 -26.491600  -2.095320   4.191150 -26.568400   0.000484   0.001317 -17.692300   0.005821   0.001135 -29.756800  -2.328540   4.065050 -44.759100  -0.001208   0.002664 -29.809600  -0.000346   0.000604  -0.367056  -3.953610  11.164200  45.676600 -21.034500  53.309400 -23.620700 -29.667500  66.671700   8.406890 -37.746800  27.916400 -55.438600  35.304300  64.860500   6.040790  -0.009627   0.001062  -1.979620  -0.003153   0.010350  19.515400   4.902120  13.548800  16.443900   0.003290   0.005099  11.510700   0.003158   0.003743  18.665700   4.571210  13.269600  19.197200   0.004302   0.006827  12.785400   0.004040   0.009592  20.731400   3.404900   8.887570  20.995200   0.002330   0.003497  13.982800   0.002113   0.011691  23.280300   2.084990   4.835800  35.051200   0.002030   0.001904  23.344000   0.001852  -0.002525   4.146660   8.931490   5.259430   0.892929   0.122592  12.679100  -2.291860  -2.952950   4.294790  -0.000000   0.000000   0.000000   1.340990   3.817780  -4.384040   0.937977   5.162180  -8.396760  -1.672710  -3.139530  -3.087300   0.000000   0.000000   0.000000
  0.783199  89.509200  -0.191608  -3.394130  -4.970010  -0.270310   0.942670   3.525210   0.016172   1.889710   7.050180  -0.025966   1.287090  -0.742184   0.015683   2.115510  -1.502730   5.900190  -7.131380   2.660170   0.653569 -73.180200  15.288000 -11.526800  -1.593540  -7.537710  -9.699060   7.987820  -6.610450  10.018700  43.315000  31.545400 -64.529900 -22.982500   0.004123   0.001837  -6.491240  -0.004520  -0.000637 -29.879300   4.889680  -8.438670 -24.742000   0.000077   0.000620 -17.319400   0.003841   0.000677 -27.353600   1.036360  -2.002360 -28.594300   0.005905   0.004472 -19.043800   0.004127   0.002834 -26.484300  -2.096780   4.199920 -26.561200   0.000380   0.001202 -17.689700   0.005571   0.000846 -29.762800  -2.333770   4.073140 -44.768600  -0.001355  -0.001335 -29.815900  -0.000405   0.000841  -0.242904  -3.845950  11.139700  46.737200 -21.545500  52.790100 -23.998000 -30.093700  66.964000   5.975180 -36.701300  27.082600 -55.852100  35.675400  65.492500   6.569700  -0.011474   0.001409  -1.715160  -0.003249   0.011852  19.751100   4.966140  13.554200  16.642200   0.003321   0.006519  11.649500   0.003172   0.004013  18.911500   4.621540  13.235700  19.446900   0.004463   0.007838  12.951700   0.004065   0.011939  20.910700   3.427010   8.888220  21.175000   0.002352   0.003815  14.102600   0.002130   0.012247  23.388200   2.077630   4.790940  35.211500   0.002142   0.002400  23.450800   0.001940  -0.002433   4.141050   8.883890   5.276560   0.879239   0.215325  12.684700  -2.306530  -3.017780   4.314620  -0.000000   0.000000  -0.000000   1.324650   3.810030  -4.371020   0.936260   5.159570  -8.389010  -1.663970  -3.159810  -3.068800  -0.000000   0.000000   0.000000
